<?xml version="1.0" standalone="no"?>
<!DOCTYPE svg PUBLIC "-//W3C//DTD SVG 20010904//EN"
 "http://www.w3.org/TR/2001/REC-SVG-20010904/DTD/svg10.dtd">
<svg version="1.0" xmlns="http://www.w3.org/2000/svg"
 width="260.000000pt" height="260.000000pt" viewBox="0 0 260.000000 260.000000"
 preserveAspectRatio="xMidYMid meet">
<metadata>
Created by potrace 1.11, written by Peter Selinger 2001-2013
</metadata>
<g transform="translate(0.000000,260.000000) scale(0.100000,-0.100000)"
fill="#000000" stroke="none">
<path d="M80 1300 l0 -1130 333 0 332 0 67 66 c38 37 68 71 68 75 0 5 -146 9
-325 9 l-325 0 0 980 0 980 1075 0 1075 0 0 -985 0 -985 -218 0 -218 1 -297
296 c-256 256 -297 300 -297 326 0 37 16 51 150 132 177 108 327 262 414 427
64 120 76 177 76 362 l0 156 -700 0 -700 0 -1 -42 c-2 -48 -2 -134 0 -190 l1
-38 75 0 75 0 0 -280 0 -280 -25 0 -25 0 0 -130 0 -130 25 0 25 0 0 -145 0
-145 120 0 120 0 0 135 0 135 33 0 c29 0 67 -34 397 -365 l365 -365 377 0 378
0 0 1130 0 1130 -1225 0 -1225 0 0 -1130z m1626 392 c-13 -135 -188 -307 -457
-451 -93 -49 -98 -51 -177 -51 l-82 0 0 270 0 270 360 0 360 0 -4 -38z"/>
<path d="M936 268 c-3 -7 -7 -27 -10 -45 l-5 -31 47 2 c27 1 53 6 60 10 7 4
12 2 12 -3 0 -6 5 -11 10 -11 6 0 10 9 10 19 0 11 5 23 10 26 6 4 10 -5 10
-20 0 -15 4 -24 10 -20 6 3 10 15 10 26 0 10 5 19 10 19 6 0 8 -11 4 -25 -4
-15 -2 -25 5 -25 6 0 12 9 13 20 0 11 1 26 2 33 1 7 -15 13 -41 14 -34 1 -43
-2 -43 -15 0 -13 -2 -13 -14 4 -13 16 -18 17 -35 6 -19 -11 -21 -10 -21 8 0
22 -38 29 -44 8z m84 -43 c0 -8 -4 -15 -10 -15 -5 0 -10 7 -10 15 0 8 5 15 10
15 6 0 10 -7 10 -15z m-60 -5 c0 -5 -4 -10 -10 -10 -5 0 -10 5 -10 10 0 6 5
10 10 10 6 0 10 -4 10 -10z"/>
<path d="M1304 246 c-8 -46 1 -69 14 -36 10 24 11 24 11 3 1 -18 6 -21 34 -20
17 1 35 6 39 12 5 6 8 5 8 -2 0 -7 5 -13 10 -13 6 0 10 9 10 20 0 21 14 27 24
11 4 -5 0 -11 -6 -14 -7 -2 -9 -8 -5 -13 4 -4 16 -3 26 3 14 9 21 9 30 0 8 -8
14 -8 23 1 9 9 8 12 -7 13 -18 0 -18 1 3 9 26 11 29 28 6 37 -10 4 -22 -1 -29
-10 -16 -22 -26 -22 -18 0 5 13 2 15 -15 11 -15 -4 -22 -2 -22 8 0 30 -20 12
-21 -18 -1 -26 -3 -28 -6 -9 -4 18 -10 22 -28 18 -14 -2 -26 1 -29 9 -3 8 -14
14 -25 14 -15 0 -22 -9 -27 -34z m36 10 c0 -3 -4 -8 -10 -11 -5 -3 -10 -1 -10
4 0 6 5 11 10 11 6 0 10 -2 10 -4z m42 -38 c-7 -7 -12 -8 -12 -2 0 14 12 26
19 19 2 -3 -1 -11 -7 -17z"/>
<path d="M1174 256 c-9 -22 0 -59 14 -64 9 -3 11 3 6 22 -4 16 -2 26 5 26 6 0
11 -9 11 -19 0 -24 13 -33 33 -25 37 14 29 69 -10 61 -13 -2 -26 0 -29 4 -8
14 -24 11 -30 -5z m76 -24 c0 -13 -12 -22 -22 -16 -10 6 -1 24 13 24 5 0 9 -4
9 -8z"/>
</g>
</svg>
